<mxfile host="app.diagrams.net" modified="2024-01-24T13:28:06.106Z" agent="Mozilla/5.0 (Windows NT 10.0; Win64; x64) AppleWebKit/537.36 (KHTML, like Gecko) Chrome/120.0.0.0 Safari/537.36" etag="Zc2a6GU5tGh1Zxi0yyDd" version="22.1.21" type="github">
  <diagram name="Page-1" id="C9WTxFrGjJMoEBv13mbD">
    <mxGraphModel dx="2029" dy="497" grid="1" gridSize="10" guides="1" tooltips="1" connect="1" arrows="1" fold="1" page="1" pageScale="1" pageWidth="850" pageHeight="1100" math="0" shadow="0">
      <root>
        <mxCell id="0" />
        <mxCell id="1" parent="0" />
        <mxCell id="3ioSgIb-tyVr_sv0GYpp-1" value="AWS Cloud" style="points=[[0,0],[0.25,0],[0.5,0],[0.75,0],[1,0],[1,0.25],[1,0.5],[1,0.75],[1,1],[0.75,1],[0.5,1],[0.25,1],[0,1],[0,0.75],[0,0.5],[0,0.25]];outlineConnect=0;gradientColor=none;html=1;whiteSpace=wrap;fontSize=12;fontStyle=0;container=1;pointerEvents=0;collapsible=0;recursiveResize=0;shape=mxgraph.aws4.group;grIcon=mxgraph.aws4.group_aws_cloud_alt;strokeColor=#232F3E;fillColor=none;verticalAlign=top;align=left;spacingLeft=30;fontColor=#232F3E;dashed=0;" vertex="1" parent="1">
          <mxGeometry x="-110" y="100" width="900" height="1220" as="geometry" />
        </mxCell>
        <mxCell id="3ioSgIb-tyVr_sv0GYpp-53" value="" style="rounded=0;whiteSpace=wrap;html=1;" vertex="1" parent="3ioSgIb-tyVr_sv0GYpp-1">
          <mxGeometry x="420" y="849" width="160" height="110" as="geometry" />
        </mxCell>
        <mxCell id="3ioSgIb-tyVr_sv0GYpp-3" value="" style="sketch=0;outlineConnect=0;fontColor=#232F3E;gradientColor=none;fillColor=#ED7100;strokeColor=none;dashed=0;verticalLabelPosition=bottom;verticalAlign=top;align=center;html=1;fontSize=12;fontStyle=0;aspect=fixed;pointerEvents=1;shape=mxgraph.aws4.instance2;" vertex="1" parent="3ioSgIb-tyVr_sv0GYpp-1">
          <mxGeometry x="341" y="110" width="48" height="48" as="geometry" />
        </mxCell>
        <mxCell id="3ioSgIb-tyVr_sv0GYpp-4" value="EC2" style="text;strokeColor=none;align=center;fillColor=none;html=1;verticalAlign=middle;whiteSpace=wrap;rounded=0;" vertex="1" parent="3ioSgIb-tyVr_sv0GYpp-1">
          <mxGeometry x="347.5" y="125" width="35" height="18" as="geometry" />
        </mxCell>
        <mxCell id="3ioSgIb-tyVr_sv0GYpp-5" value="&lt;font style=&quot;font-size: 10px;&quot;&gt;NGINX/image processing&lt;br&gt;(image)&lt;br&gt;&lt;/font&gt;" style="text;strokeColor=none;align=center;fillColor=none;html=1;verticalAlign=middle;whiteSpace=wrap;rounded=0;" vertex="1" parent="3ioSgIb-tyVr_sv0GYpp-1">
          <mxGeometry x="300" y="70" width="130" height="30" as="geometry" />
        </mxCell>
        <mxCell id="3ioSgIb-tyVr_sv0GYpp-6" value="" style="sketch=0;outlineConnect=0;fontColor=#232F3E;gradientColor=none;fillColor=#ED7100;strokeColor=none;dashed=0;verticalLabelPosition=bottom;verticalAlign=top;align=center;html=1;fontSize=12;fontStyle=0;aspect=fixed;pointerEvents=1;shape=mxgraph.aws4.instance2;" vertex="1" parent="3ioSgIb-tyVr_sv0GYpp-1">
          <mxGeometry x="512" y="110" width="48" height="48" as="geometry" />
        </mxCell>
        <mxCell id="3ioSgIb-tyVr_sv0GYpp-7" value="EC2" style="text;strokeColor=none;align=center;fillColor=none;html=1;verticalAlign=middle;whiteSpace=wrap;rounded=0;" vertex="1" parent="3ioSgIb-tyVr_sv0GYpp-1">
          <mxGeometry x="518.5" y="125" width="35" height="18" as="geometry" />
        </mxCell>
        <mxCell id="3ioSgIb-tyVr_sv0GYpp-8" value="&lt;font style=&quot;font-size: 10px;&quot;&gt;irwin/anti-cheat&lt;br&gt;(burke)&lt;br&gt;&lt;/font&gt;" style="text;strokeColor=none;align=center;fillColor=none;html=1;verticalAlign=middle;whiteSpace=wrap;rounded=0;" vertex="1" parent="3ioSgIb-tyVr_sv0GYpp-1">
          <mxGeometry x="471" y="70" width="130" height="30" as="geometry" />
        </mxCell>
        <mxCell id="3ioSgIb-tyVr_sv0GYpp-9" value="" style="sketch=0;outlineConnect=0;fontColor=#232F3E;gradientColor=none;fillColor=#ED7100;strokeColor=none;dashed=0;verticalLabelPosition=bottom;verticalAlign=top;align=center;html=1;fontSize=12;fontStyle=0;aspect=fixed;pointerEvents=1;shape=mxgraph.aws4.instance2;" vertex="1" parent="3ioSgIb-tyVr_sv0GYpp-1">
          <mxGeometry x="642" y="110" width="48" height="48" as="geometry" />
        </mxCell>
        <mxCell id="3ioSgIb-tyVr_sv0GYpp-10" value="EC2" style="text;strokeColor=none;align=center;fillColor=none;html=1;verticalAlign=middle;whiteSpace=wrap;rounded=0;" vertex="1" parent="3ioSgIb-tyVr_sv0GYpp-1">
          <mxGeometry x="648.5" y="125" width="35" height="18" as="geometry" />
        </mxCell>
        <mxCell id="3ioSgIb-tyVr_sv0GYpp-11" value="&lt;font style=&quot;font-size: 10px;&quot;&gt;irwin/anti-cheat&lt;br&gt;(butch)&lt;br&gt;&lt;/font&gt;" style="text;strokeColor=none;align=center;fillColor=none;html=1;verticalAlign=middle;whiteSpace=wrap;rounded=0;" vertex="1" parent="3ioSgIb-tyVr_sv0GYpp-1">
          <mxGeometry x="601" y="70" width="130" height="30" as="geometry" />
        </mxCell>
        <mxCell id="3ioSgIb-tyVr_sv0GYpp-12" value="" style="sketch=0;outlineConnect=0;fontColor=#232F3E;gradientColor=none;fillColor=#ED7100;strokeColor=none;dashed=0;verticalLabelPosition=bottom;verticalAlign=top;align=center;html=1;fontSize=12;fontStyle=0;aspect=fixed;pointerEvents=1;shape=mxgraph.aws4.instance2;" vertex="1" parent="3ioSgIb-tyVr_sv0GYpp-1">
          <mxGeometry x="783" y="110" width="48" height="48" as="geometry" />
        </mxCell>
        <mxCell id="3ioSgIb-tyVr_sv0GYpp-13" value="EC2" style="text;strokeColor=none;align=center;fillColor=none;html=1;verticalAlign=middle;whiteSpace=wrap;rounded=0;" vertex="1" parent="3ioSgIb-tyVr_sv0GYpp-1">
          <mxGeometry x="789.5" y="125" width="35" height="18" as="geometry" />
        </mxCell>
        <mxCell id="3ioSgIb-tyVr_sv0GYpp-14" value="&lt;font style=&quot;font-size: 10px;&quot;&gt;irwin/anti-cheat&lt;br&gt;(uluru)&lt;br&gt;&lt;/font&gt;" style="text;strokeColor=none;align=center;fillColor=none;html=1;verticalAlign=middle;whiteSpace=wrap;rounded=0;" vertex="1" parent="3ioSgIb-tyVr_sv0GYpp-1">
          <mxGeometry x="742" y="70" width="130" height="30" as="geometry" />
        </mxCell>
        <mxCell id="3ioSgIb-tyVr_sv0GYpp-15" value="" style="sketch=0;outlineConnect=0;fontColor=#232F3E;gradientColor=none;fillColor=#ED7100;strokeColor=none;dashed=0;verticalLabelPosition=bottom;verticalAlign=top;align=center;html=1;fontSize=12;fontStyle=0;aspect=fixed;pointerEvents=1;shape=mxgraph.aws4.instance2;" vertex="1" parent="3ioSgIb-tyVr_sv0GYpp-1">
          <mxGeometry x="341" y="230" width="48" height="48" as="geometry" />
        </mxCell>
        <mxCell id="3ioSgIb-tyVr_sv0GYpp-16" value="EC2" style="text;strokeColor=none;align=center;fillColor=none;html=1;verticalAlign=middle;whiteSpace=wrap;rounded=0;" vertex="1" parent="3ioSgIb-tyVr_sv0GYpp-1">
          <mxGeometry x="347.5" y="245" width="35" height="18" as="geometry" />
        </mxCell>
        <mxCell id="3ioSgIb-tyVr_sv0GYpp-17" value="&lt;font style=&quot;font-size: 10px;&quot;&gt;NGINX/lila-opening-explorer&lt;br&gt;(rubik)&lt;br&gt;&lt;/font&gt;" style="text;strokeColor=none;align=center;fillColor=none;html=1;verticalAlign=middle;whiteSpace=wrap;rounded=0;" vertex="1" parent="3ioSgIb-tyVr_sv0GYpp-1">
          <mxGeometry x="300" y="190" width="130" height="30" as="geometry" />
        </mxCell>
        <mxCell id="3ioSgIb-tyVr_sv0GYpp-18" value="" style="sketch=0;outlineConnect=0;fontColor=#232F3E;gradientColor=none;fillColor=#ED7100;strokeColor=none;dashed=0;verticalLabelPosition=bottom;verticalAlign=top;align=center;html=1;fontSize=12;fontStyle=0;aspect=fixed;pointerEvents=1;shape=mxgraph.aws4.instance2;" vertex="1" parent="3ioSgIb-tyVr_sv0GYpp-1">
          <mxGeometry x="341" y="350" width="48" height="48" as="geometry" />
        </mxCell>
        <mxCell id="3ioSgIb-tyVr_sv0GYpp-19" value="EC2" style="text;strokeColor=none;align=center;fillColor=none;html=1;verticalAlign=middle;whiteSpace=wrap;rounded=0;" vertex="1" parent="3ioSgIb-tyVr_sv0GYpp-1">
          <mxGeometry x="347.5" y="365" width="35" height="18" as="geometry" />
        </mxCell>
        <mxCell id="3ioSgIb-tyVr_sv0GYpp-20" value="&lt;font style=&quot;font-size: 10px;&quot;&gt;NGINX/lila-tablebase&lt;br&gt;(iterra)&lt;br&gt;&lt;/font&gt;" style="text;strokeColor=none;align=center;fillColor=none;html=1;verticalAlign=middle;whiteSpace=wrap;rounded=0;" vertex="1" parent="3ioSgIb-tyVr_sv0GYpp-1">
          <mxGeometry x="300" y="310" width="130" height="30" as="geometry" />
        </mxCell>
        <mxCell id="3ioSgIb-tyVr_sv0GYpp-21" value="" style="rounded=0;whiteSpace=wrap;html=1;" vertex="1" parent="3ioSgIb-tyVr_sv0GYpp-1">
          <mxGeometry x="130" y="440" width="155" height="110" as="geometry" />
        </mxCell>
        <mxCell id="3ioSgIb-tyVr_sv0GYpp-22" value="&lt;font style=&quot;font-size: 10px;&quot;&gt;Web Clients&lt;br&gt;Mobile Clients&lt;br&gt;API Clients&lt;br&gt;&lt;/font&gt;" style="text;strokeColor=none;align=center;fillColor=none;html=1;verticalAlign=middle;whiteSpace=wrap;rounded=0;" vertex="1" parent="3ioSgIb-tyVr_sv0GYpp-1">
          <mxGeometry x="142.5" y="460" width="130" height="70" as="geometry" />
        </mxCell>
        <mxCell id="3ioSgIb-tyVr_sv0GYpp-23" value="" style="sketch=0;outlineConnect=0;fontColor=#232F3E;gradientColor=none;fillColor=#8C4FFF;strokeColor=none;dashed=0;verticalLabelPosition=bottom;verticalAlign=top;align=center;html=1;fontSize=12;fontStyle=0;aspect=fixed;pointerEvents=1;shape=mxgraph.aws4.cloudfront_functions;" vertex="1" parent="3ioSgIb-tyVr_sv0GYpp-1">
          <mxGeometry x="172.5" y="340" width="53" height="53" as="geometry" />
        </mxCell>
        <mxCell id="3ioSgIb-tyVr_sv0GYpp-24" value="&lt;font style=&quot;font-size: 10px;&quot;&gt;CDN&lt;br&gt;&lt;/font&gt;" style="text;strokeColor=none;align=center;fillColor=none;html=1;verticalAlign=middle;whiteSpace=wrap;rounded=0;" vertex="1" parent="3ioSgIb-tyVr_sv0GYpp-1">
          <mxGeometry x="159.75" y="310" width="78.5" height="20" as="geometry" />
        </mxCell>
        <mxCell id="3ioSgIb-tyVr_sv0GYpp-34" value="" style="rounded=0;whiteSpace=wrap;html=1;" vertex="1" parent="3ioSgIb-tyVr_sv0GYpp-1">
          <mxGeometry x="308.5" y="420" width="231.5" height="260" as="geometry" />
        </mxCell>
        <mxCell id="3ioSgIb-tyVr_sv0GYpp-35" value="" style="sketch=0;outlineConnect=0;fontColor=#232F3E;gradientColor=none;fillColor=#ED7100;strokeColor=none;dashed=0;verticalLabelPosition=bottom;verticalAlign=top;align=center;html=1;fontSize=12;fontStyle=0;aspect=fixed;pointerEvents=1;shape=mxgraph.aws4.instance2;" vertex="1" parent="3ioSgIb-tyVr_sv0GYpp-1">
          <mxGeometry x="361" y="490" width="48" height="48" as="geometry" />
        </mxCell>
        <mxCell id="3ioSgIb-tyVr_sv0GYpp-36" value="EC2" style="text;strokeColor=none;align=center;fillColor=none;html=1;verticalAlign=middle;whiteSpace=wrap;rounded=0;" vertex="1" parent="3ioSgIb-tyVr_sv0GYpp-1">
          <mxGeometry x="367.5" y="505" width="35" height="18" as="geometry" />
        </mxCell>
        <mxCell id="3ioSgIb-tyVr_sv0GYpp-37" value="&lt;font style=&quot;font-size: 10px;&quot;&gt;HTTP/Nginx&lt;br&gt;&lt;/font&gt;" style="text;strokeColor=none;align=center;fillColor=none;html=1;verticalAlign=middle;whiteSpace=wrap;rounded=0;" vertex="1" parent="3ioSgIb-tyVr_sv0GYpp-1">
          <mxGeometry x="335" y="461" width="100" height="20" as="geometry" />
        </mxCell>
        <mxCell id="3ioSgIb-tyVr_sv0GYpp-38" value="" style="sketch=0;outlineConnect=0;fontColor=#232F3E;gradientColor=none;fillColor=#ED7100;strokeColor=none;dashed=0;verticalLabelPosition=bottom;verticalAlign=top;align=center;html=1;fontSize=12;fontStyle=0;aspect=fixed;pointerEvents=1;shape=mxgraph.aws4.instance2;" vertex="1" parent="3ioSgIb-tyVr_sv0GYpp-1">
          <mxGeometry x="462.5" y="492" width="48" height="48" as="geometry" />
        </mxCell>
        <mxCell id="3ioSgIb-tyVr_sv0GYpp-39" value="EC2" style="text;strokeColor=none;align=center;fillColor=none;html=1;verticalAlign=middle;whiteSpace=wrap;rounded=0;" vertex="1" parent="3ioSgIb-tyVr_sv0GYpp-1">
          <mxGeometry x="469" y="507" width="35" height="18" as="geometry" />
        </mxCell>
        <mxCell id="3ioSgIb-tyVr_sv0GYpp-40" value="&lt;font style=&quot;font-size: 10px;&quot;&gt;lila&lt;br&gt;&lt;/font&gt;" style="text;strokeColor=none;align=center;fillColor=none;html=1;verticalAlign=middle;whiteSpace=wrap;rounded=0;" vertex="1" parent="3ioSgIb-tyVr_sv0GYpp-1">
          <mxGeometry x="456.5" y="461" width="60" height="21" as="geometry" />
        </mxCell>
        <mxCell id="3ioSgIb-tyVr_sv0GYpp-25" value="" style="sketch=0;outlineConnect=0;fontColor=#232F3E;gradientColor=none;fillColor=#ED7100;strokeColor=none;dashed=0;verticalLabelPosition=bottom;verticalAlign=top;align=center;html=1;fontSize=12;fontStyle=0;aspect=fixed;pointerEvents=1;shape=mxgraph.aws4.instance2;" vertex="1" parent="3ioSgIb-tyVr_sv0GYpp-1">
          <mxGeometry x="331" y="760" width="48" height="48" as="geometry" />
        </mxCell>
        <mxCell id="3ioSgIb-tyVr_sv0GYpp-26" value="EC2" style="text;strokeColor=none;align=center;fillColor=none;html=1;verticalAlign=middle;whiteSpace=wrap;rounded=0;" vertex="1" parent="3ioSgIb-tyVr_sv0GYpp-1">
          <mxGeometry x="337.5" y="775" width="35" height="18" as="geometry" />
        </mxCell>
        <mxCell id="3ioSgIb-tyVr_sv0GYpp-27" value="&lt;font style=&quot;font-size: 10px;&quot;&gt;NGINX/lila-http&lt;br&gt;(hyper)&lt;br&gt;&lt;/font&gt;" style="text;strokeColor=none;align=center;fillColor=none;html=1;verticalAlign=middle;whiteSpace=wrap;rounded=0;" vertex="1" parent="3ioSgIb-tyVr_sv0GYpp-1">
          <mxGeometry x="290" y="720" width="130" height="30" as="geometry" />
        </mxCell>
        <mxCell id="3ioSgIb-tyVr_sv0GYpp-28" value="" style="sketch=0;outlineConnect=0;fontColor=#232F3E;gradientColor=none;fillColor=#ED7100;strokeColor=none;dashed=0;verticalLabelPosition=bottom;verticalAlign=top;align=center;html=1;fontSize=12;fontStyle=0;aspect=fixed;pointerEvents=1;shape=mxgraph.aws4.instance2;" vertex="1" parent="3ioSgIb-tyVr_sv0GYpp-1">
          <mxGeometry x="331" y="880" width="48" height="48" as="geometry" />
        </mxCell>
        <mxCell id="3ioSgIb-tyVr_sv0GYpp-29" value="EC2" style="text;strokeColor=none;align=center;fillColor=none;html=1;verticalAlign=middle;whiteSpace=wrap;rounded=0;" vertex="1" parent="3ioSgIb-tyVr_sv0GYpp-1">
          <mxGeometry x="337.5" y="895" width="35" height="18" as="geometry" />
        </mxCell>
        <mxCell id="3ioSgIb-tyVr_sv0GYpp-30" value="&lt;font style=&quot;font-size: 10px;&quot;&gt;WS NGINX #1&amp;nbsp;&lt;br&gt;(syrup)&lt;br&gt;&lt;/font&gt;" style="text;strokeColor=none;align=center;fillColor=none;html=1;verticalAlign=middle;whiteSpace=wrap;rounded=0;" vertex="1" parent="3ioSgIb-tyVr_sv0GYpp-1">
          <mxGeometry x="290" y="840" width="130" height="30" as="geometry" />
        </mxCell>
        <mxCell id="3ioSgIb-tyVr_sv0GYpp-31" value="" style="sketch=0;outlineConnect=0;fontColor=#232F3E;gradientColor=none;fillColor=#ED7100;strokeColor=none;dashed=0;verticalLabelPosition=bottom;verticalAlign=top;align=center;html=1;fontSize=12;fontStyle=0;aspect=fixed;pointerEvents=1;shape=mxgraph.aws4.instance2;" vertex="1" parent="3ioSgIb-tyVr_sv0GYpp-1">
          <mxGeometry x="331" y="1000" width="48" height="48" as="geometry" />
        </mxCell>
        <mxCell id="3ioSgIb-tyVr_sv0GYpp-32" value="EC2" style="text;strokeColor=none;align=center;fillColor=none;html=1;verticalAlign=middle;whiteSpace=wrap;rounded=0;" vertex="1" parent="3ioSgIb-tyVr_sv0GYpp-1">
          <mxGeometry x="337.5" y="1015" width="35" height="18" as="geometry" />
        </mxCell>
        <mxCell id="3ioSgIb-tyVr_sv0GYpp-33" value="&lt;font style=&quot;font-size: 10px;&quot;&gt;WG NGINX #2&amp;nbsp;&lt;br&gt;(taffy)&lt;br&gt;&lt;/font&gt;" style="text;strokeColor=none;align=center;fillColor=none;html=1;verticalAlign=middle;whiteSpace=wrap;rounded=0;" vertex="1" parent="3ioSgIb-tyVr_sv0GYpp-1">
          <mxGeometry x="290" y="960" width="130" height="30" as="geometry" />
        </mxCell>
        <mxCell id="3ioSgIb-tyVr_sv0GYpp-43" value="" style="sketch=0;outlineConnect=0;fontColor=#232F3E;gradientColor=none;fillColor=#ED7100;strokeColor=none;dashed=0;verticalLabelPosition=bottom;verticalAlign=top;align=center;html=1;fontSize=12;fontStyle=0;aspect=fixed;pointerEvents=1;shape=mxgraph.aws4.instance2;" vertex="1" parent="3ioSgIb-tyVr_sv0GYpp-1">
          <mxGeometry x="462.5" y="607" width="48" height="48" as="geometry" />
        </mxCell>
        <mxCell id="3ioSgIb-tyVr_sv0GYpp-44" value="EC2" style="text;strokeColor=none;align=center;fillColor=none;html=1;verticalAlign=middle;whiteSpace=wrap;rounded=0;" vertex="1" parent="3ioSgIb-tyVr_sv0GYpp-1">
          <mxGeometry x="469" y="622" width="35" height="18" as="geometry" />
        </mxCell>
        <mxCell id="3ioSgIb-tyVr_sv0GYpp-45" value="&lt;font style=&quot;font-size: 10px;&quot;&gt;redis pub/sub&lt;br&gt;&lt;/font&gt;" style="text;strokeColor=none;align=center;fillColor=none;html=1;verticalAlign=middle;whiteSpace=wrap;rounded=0;" vertex="1" parent="3ioSgIb-tyVr_sv0GYpp-1">
          <mxGeometry x="430" y="571" width="113" height="26" as="geometry" />
        </mxCell>
        <mxCell id="3ioSgIb-tyVr_sv0GYpp-46" value="&lt;font style=&quot;&quot;&gt;&lt;font style=&quot;font-size: 12px;&quot;&gt;&lt;b&gt;manta&lt;/b&gt;&lt;/font&gt;&lt;br&gt;&lt;/font&gt;" style="text;strokeColor=none;align=center;fillColor=none;html=1;verticalAlign=middle;whiteSpace=wrap;rounded=0;" vertex="1" parent="3ioSgIb-tyVr_sv0GYpp-1">
          <mxGeometry x="414.25" y="420" width="60" height="21" as="geometry" />
        </mxCell>
        <mxCell id="3ioSgIb-tyVr_sv0GYpp-47" value="" style="sketch=0;outlineConnect=0;fontColor=#232F3E;gradientColor=none;fillColor=#ED7100;strokeColor=none;dashed=0;verticalLabelPosition=bottom;verticalAlign=top;align=center;html=1;fontSize=12;fontStyle=0;aspect=fixed;pointerEvents=1;shape=mxgraph.aws4.instance2;" vertex="1" parent="3ioSgIb-tyVr_sv0GYpp-1">
          <mxGeometry x="451" y="879" width="48" height="48" as="geometry" />
        </mxCell>
        <mxCell id="3ioSgIb-tyVr_sv0GYpp-48" value="EC2" style="text;strokeColor=none;align=center;fillColor=none;html=1;verticalAlign=middle;whiteSpace=wrap;rounded=0;" vertex="1" parent="3ioSgIb-tyVr_sv0GYpp-1">
          <mxGeometry x="457.5" y="894" width="35" height="18" as="geometry" />
        </mxCell>
        <mxCell id="3ioSgIb-tyVr_sv0GYpp-49" value="&lt;font style=&quot;font-size: 10px;&quot;&gt;lila-ws&lt;br&gt;&lt;/font&gt;" style="text;strokeColor=none;align=center;fillColor=none;html=1;verticalAlign=middle;whiteSpace=wrap;rounded=0;" vertex="1" parent="3ioSgIb-tyVr_sv0GYpp-1">
          <mxGeometry x="445" y="929" width="60" height="20" as="geometry" />
        </mxCell>
        <mxCell id="3ioSgIb-tyVr_sv0GYpp-50" value="" style="sketch=0;outlineConnect=0;fontColor=#232F3E;gradientColor=none;fillColor=#ED7100;strokeColor=none;dashed=0;verticalLabelPosition=bottom;verticalAlign=top;align=center;html=1;fontSize=12;fontStyle=0;aspect=fixed;pointerEvents=1;shape=mxgraph.aws4.instance2;" vertex="1" parent="3ioSgIb-tyVr_sv0GYpp-1">
          <mxGeometry x="505" y="879" width="48" height="48" as="geometry" />
        </mxCell>
        <mxCell id="3ioSgIb-tyVr_sv0GYpp-51" value="EC2" style="text;strokeColor=none;align=center;fillColor=none;html=1;verticalAlign=middle;whiteSpace=wrap;rounded=0;" vertex="1" parent="3ioSgIb-tyVr_sv0GYpp-1">
          <mxGeometry x="511.5" y="894" width="35" height="18" as="geometry" />
        </mxCell>
        <mxCell id="3ioSgIb-tyVr_sv0GYpp-52" value="&lt;font style=&quot;font-size: 10px;&quot;&gt;lila-fishnet&lt;br&gt;&lt;/font&gt;" style="text;strokeColor=none;align=center;fillColor=none;html=1;verticalAlign=middle;whiteSpace=wrap;rounded=0;" vertex="1" parent="3ioSgIb-tyVr_sv0GYpp-1">
          <mxGeometry x="499" y="929" width="60" height="20" as="geometry" />
        </mxCell>
        <mxCell id="3ioSgIb-tyVr_sv0GYpp-54" value="&lt;font style=&quot;font-size: 10px;&quot;&gt;starr&lt;br&gt;&lt;/font&gt;" style="text;strokeColor=none;align=center;fillColor=none;html=1;verticalAlign=middle;whiteSpace=wrap;rounded=0;" vertex="1" parent="3ioSgIb-tyVr_sv0GYpp-1">
          <mxGeometry x="470" y="849" width="60" height="20" as="geometry" />
        </mxCell>
        <mxCell id="3ioSgIb-tyVr_sv0GYpp-56" value="" style="sketch=0;outlineConnect=0;fontColor=#232F3E;gradientColor=none;fillColor=#ED7100;strokeColor=none;dashed=0;verticalLabelPosition=bottom;verticalAlign=top;align=center;html=1;fontSize=12;fontStyle=0;aspect=fixed;pointerEvents=1;shape=mxgraph.aws4.instance2;" vertex="1" parent="3ioSgIb-tyVr_sv0GYpp-1">
          <mxGeometry x="470" y="1030" width="48" height="48" as="geometry" />
        </mxCell>
        <mxCell id="3ioSgIb-tyVr_sv0GYpp-57" value="EC2" style="text;strokeColor=none;align=center;fillColor=none;html=1;verticalAlign=middle;whiteSpace=wrap;rounded=0;" vertex="1" parent="3ioSgIb-tyVr_sv0GYpp-1">
          <mxGeometry x="476.5" y="1045" width="35" height="18" as="geometry" />
        </mxCell>
        <mxCell id="3ioSgIb-tyVr_sv0GYpp-58" value="&lt;font style=&quot;font-size: 10px;&quot;&gt;Fishnet moves&lt;br&gt;(self-hosted)&lt;br&gt;&lt;/font&gt;" style="text;strokeColor=none;align=center;fillColor=none;html=1;verticalAlign=middle;whiteSpace=wrap;rounded=0;" vertex="1" parent="3ioSgIb-tyVr_sv0GYpp-1">
          <mxGeometry x="429" y="990" width="130" height="30" as="geometry" />
        </mxCell>
        <mxCell id="3ioSgIb-tyVr_sv0GYpp-59" value="" style="sketch=0;outlineConnect=0;fontColor=#232F3E;gradientColor=none;fillColor=#ED7100;strokeColor=none;dashed=0;verticalLabelPosition=bottom;verticalAlign=top;align=center;html=1;fontSize=12;fontStyle=0;aspect=fixed;pointerEvents=1;shape=cloud;perimeter=ellipsePerimeter;whiteSpace=wrap;" vertex="1" parent="3ioSgIb-tyVr_sv0GYpp-1">
          <mxGeometry x="516.5" y="225" width="58" height="58" as="geometry" />
        </mxCell>
        <mxCell id="3ioSgIb-tyVr_sv0GYpp-60" value="EC2" style="text;strokeColor=none;align=center;fillColor=none;html=1;verticalAlign=middle;whiteSpace=wrap;rounded=0;" vertex="1" parent="3ioSgIb-tyVr_sv0GYpp-1">
          <mxGeometry x="528.5" y="245" width="35" height="18" as="geometry" />
        </mxCell>
        <mxCell id="3ioSgIb-tyVr_sv0GYpp-61" value="&lt;font style=&quot;font-size: 10px;&quot;&gt;fishnet analysis&lt;br&gt;(distributed)&lt;br&gt;&lt;/font&gt;" style="text;strokeColor=none;align=center;fillColor=none;html=1;verticalAlign=middle;whiteSpace=wrap;rounded=0;" vertex="1" parent="3ioSgIb-tyVr_sv0GYpp-1">
          <mxGeometry x="481" y="190" width="130" height="30" as="geometry" />
        </mxCell>
      </root>
    </mxGraphModel>
  </diagram>
</mxfile>
